<svg width="93" height="88" viewBox="0 0 93 88" fill="none" xmlns="http://www.w3.org/2000/svg">
<path fill-rule="evenodd" clip-rule="evenodd" d="M24.0767 0.143247C18.385 0.736449 13.08 2.96654 9.24931 6.37643C3.11219 11.8395 -0.373943 22.3088 0.0319214 34.0554C0.209809 39.2043 1.0295 42.8399 3.28586 48.4876L3.58172 49.2285H5.63702C6.76754 49.2285 7.69232 49.1586 7.69232 49.0731C7.69232 48.9876 7.27593 47.9288 6.76731 46.7203C4.66777 41.7337 3.86961 37.7696 3.87546 32.3581C3.88834 20.1113 7.86225 10.9089 14.8961 6.83877C20.2531 3.73894 28.7399 2.80012 35.3117 4.57995C37.313 5.12209 41.7154 6.94364 42.092 7.38546C42.288 7.6155 41.9795 7.81133 40.6872 8.278C38.9671 8.89902 34.6655 10.002 32.0421 10.4946C30.266 10.8282 29.4602 11.4615 29.4602 12.5239C29.4602 13.5035 30.3676 14.3477 31.4204 14.3477C32.6132 14.3477 39.0333 12.7145 41.8425 11.6963C43.1816 11.2112 45.6042 10.1198 47.226 9.27131C55.0072 5.20051 57.4917 4.2911 62.1163 3.82146C65.2212 3.50617 69.3124 3.80323 72.3819 4.5665C79.7258 6.39284 84.4394 10.8558 87.0543 18.4582C88.5163 22.7082 89.1873 27.1346 89.1789 32.4721C89.1702 38.043 88.1376 42.8223 85.8873 47.7075L85.1788 49.2454L87.338 49.18L89.4972 49.1146L90.2434 47.2907C92.3565 42.1245 92.9958 38.6617 93 32.3581C93.0033 26.9723 92.7004 24.4814 91.4825 19.8808C88.469 8.49481 81.2334 1.91829 69.953 0.311724C66.1221 -0.233603 60.6293 -0.0457481 57.539 0.736905C54.7176 1.45116 51.7469 2.63871 48.8293 4.21815L46.5474 5.45357L44.6422 4.42698C38.4685 1.10076 34.1494 -0.0462042 28.0558 0.0224175C26.3179 0.0420238 24.5273 0.096511 24.0767 0.143247ZM8.86264 54.4873C6.09485 55.4793 3.38698 56.4528 2.84512 56.6506L1.85995 57.0104L2.33346 58.1802C2.59374 58.8237 2.85167 59.4208 2.90645 59.507C2.96122 59.5934 4.08495 59.2781 5.40389 58.8064L7.80187 57.949L9.00682 60.1599C15.9187 72.841 25.0312 82.0108 34.5243 85.8386L35.6946 86.2902L45.4082 88L54.8877 86.5181L57.0554 85.8042C59.7474 84.7546 62.8101 83.0395 65.7986 80.9079C68.6408 78.8804 73.8089 73.9413 76.3993 70.7767C78.7465 67.9094 82.6413 62.2361 83.9544 59.7726C84.5056 58.738 84.9843 57.8918 85.018 57.8918C85.0517 57.8918 86.0141 58.1995 87.1566 58.5757C88.2991 58.9519 89.3514 59.2596 89.4949 59.2596C89.846 59.2596 90.6668 56.9997 90.4047 56.7551C90.205 56.569 78.508 52.6482 78.1525 52.6482C77.9926 52.6482 77.3384 54.1269 77.1619 54.887C77.1165 55.0819 77.8748 55.4629 79.3155 55.9685C80.5385 56.3978 81.6737 56.7988 81.838 56.8597C82.2099 56.9974 81.5197 58.3707 79.3752 61.7585C75.5679 67.7738 68.933 75.1343 64.3355 78.4427C51.7654 87.4883 38.9132 87.3996 27.153 78.1858C23.1433 75.0445 19.3215 70.8278 15.7848 65.6431C13.7192 62.615 11.0705 58.0755 10.9341 57.3293C10.8646 56.9493 11.2019 56.758 13.1439 56.0755C15.6671 55.1888 15.6046 55.2841 14.835 53.4899C14.6363 53.0269 14.3437 52.6562 14.1845 52.6662C14.0251 52.676 11.6304 53.4956 8.86264 54.4873Z" fill="#426D97"/>
</svg>
