<svg width="364" height="88" viewBox="0 0 364 88" fill="none" xmlns="http://www.w3.org/2000/svg">
<path fill-rule="evenodd" clip-rule="evenodd" d="M24.0767 0.143247C18.385 0.736449 13.08 2.96654 9.24931 6.37643C3.11219 11.8395 -0.373943 22.3088 0.0319214 34.0554C0.209809 39.2043 1.0295 42.8399 3.28586 48.4876L3.58172 49.2286H5.63702C6.76754 49.2286 7.69232 49.1586 7.69232 49.0731C7.69232 48.9876 7.27593 47.9288 6.76731 46.7203C4.66777 41.7337 3.86961 37.7696 3.87546 32.3581C3.88834 20.1113 7.86225 10.9089 14.8961 6.83877C20.2531 3.73894 28.7399 2.80012 35.3117 4.57995C37.313 5.12209 41.7154 6.94364 42.092 7.38546C42.288 7.6155 41.9795 7.81133 40.6872 8.278C38.9671 8.89902 34.6655 10.002 32.0421 10.4946C30.266 10.8282 29.4602 11.4615 29.4602 12.5239C29.4602 13.5035 30.3676 14.3477 31.4204 14.3477C32.6132 14.3477 39.0333 12.7145 41.8425 11.6963C43.1816 11.2112 45.6042 10.1198 47.226 9.27131C55.0072 5.20051 57.4917 4.2911 62.1163 3.82146C65.2212 3.50617 69.3124 3.80323 72.3819 4.5665C79.7258 6.39284 84.4394 10.8558 87.0543 18.4582C88.5163 22.7082 89.1873 27.1346 89.1789 32.4721C89.1702 38.043 88.1376 42.8223 85.8873 47.7075L85.1788 49.2454L87.338 49.18L89.4972 49.1146L90.2434 47.2907C92.3565 42.1245 92.9958 38.6617 93 32.3581C93.0032 26.9723 92.7004 24.4814 91.4825 19.8808C88.469 8.49481 81.2334 1.91829 69.953 0.311724C66.1221 -0.233603 60.6293 -0.0457481 57.539 0.736905C54.7176 1.45116 51.7469 2.63871 48.8293 4.21815L46.5474 5.45357L44.6422 4.42698C38.4685 1.10076 34.1494 -0.0462042 28.0558 0.0224175C26.3179 0.0420238 24.5273 0.096511 24.0767 0.143247ZM8.86264 54.4873C6.09485 55.4793 3.38698 56.4528 2.84512 56.6506L1.85995 57.0104L2.33346 58.1802C2.59374 58.8237 2.85167 59.4208 2.90645 59.507C2.96122 59.5934 4.08495 59.2781 5.40389 58.8064L7.80187 57.949L9.00682 60.1599C15.9187 72.8411 25.0312 82.0108 34.5243 85.8386L35.6946 86.2902L45.4082 88L54.8877 86.5181L57.0554 85.8042C59.7474 84.7546 62.8101 83.0395 65.7986 80.9079C68.6408 78.8804 73.8089 73.9413 76.3993 70.7767C78.7465 67.9094 82.6413 62.2361 83.9544 59.7726C84.5056 58.738 84.9843 57.8918 85.018 57.8918C85.0517 57.8918 86.0141 58.1995 87.1566 58.5757C88.2991 58.9519 89.3514 59.2596 89.4949 59.2596C89.846 59.2596 90.6668 56.9997 90.4047 56.7551C90.205 56.569 78.508 52.6482 78.1525 52.6482C77.9926 52.6482 77.3384 54.1269 77.1619 54.887C77.1165 55.0819 77.8748 55.4629 79.3155 55.9685C80.5385 56.3978 81.6737 56.7988 81.838 56.8597C82.2099 56.9974 81.5197 58.3707 79.3752 61.7585C75.5679 67.7738 68.933 75.1343 64.3355 78.4427C51.7654 87.4883 38.9132 87.3996 27.153 78.1858C23.1433 75.0445 19.3215 70.8278 15.7848 65.6431C13.7192 62.615 11.0706 58.0755 10.9341 57.3293C10.8646 56.9493 11.2019 56.758 13.1439 56.0755C15.6671 55.1888 15.6046 55.2841 14.835 53.4899C14.6363 53.0269 14.3437 52.6562 14.1845 52.6662C14.0251 52.676 11.6304 53.4956 8.86264 54.4873Z" fill="#426D97"/>
<path d="M125.001 23.72C124.741 22.06 124.181 20.81 123.321 19.97C122.481 19.13 121.361 18.7 119.961 18.68C118.921 18.68 118.011 18.92 117.231 19.4C116.451 19.88 115.801 20.52 115.281 21.32C114.781 22.12 114.401 23.03 114.141 24.05C113.901 25.07 113.781 26.12 113.781 27.2C113.781 28.92 114.021 30.45 114.501 31.79C115.001 33.11 115.721 34.15 116.661 34.91C117.601 35.67 118.741 36.05 120.081 36.05C121.341 36.05 122.591 35.73 123.831 35.09C125.071 34.43 126.111 33.52 126.951 32.36L128.391 33.68C127.411 35.02 126.381 36.04 125.301 36.74C124.221 37.42 123.161 37.88 122.121 38.12C121.101 38.36 120.181 38.48 119.361 38.48C117.821 38.48 116.421 38.21 115.161 37.67C113.901 37.11 112.811 36.35 111.891 35.39C110.991 34.41 110.291 33.28 109.791 32C109.311 30.7 109.071 29.3 109.071 27.8C109.071 26.44 109.291 25.09 109.731 23.75C110.171 22.41 110.821 21.2 111.681 20.12C112.561 19.02 113.661 18.15 114.981 17.51C116.301 16.85 117.831 16.52 119.571 16.52C120.351 16.52 121.201 16.65 122.121 16.91C123.061 17.15 123.941 17.51 124.761 17.99L124.641 16.73H126.951V23.72H125.001ZM129.425 36.05C129.985 36.05 130.385 35.94 130.625 35.72C130.885 35.5 131.045 35.19 131.105 34.79C131.165 34.37 131.195 33.9 131.195 33.38V21.05C131.195 20.69 131.205 20.28 131.225 19.82C131.245 19.34 131.275 18.88 131.315 18.44C130.995 18.46 130.615 18.48 130.175 18.5C129.755 18.5 129.435 18.51 129.215 18.53V16.25C130.155 16.25 130.935 16.2 131.555 16.1C132.195 16 132.695 15.88 133.055 15.74C133.435 15.6 133.695 15.47 133.835 15.35H135.455V33.17C135.455 33.45 135.445 33.85 135.425 34.37C135.405 34.87 135.375 35.35 135.335 35.81C135.675 35.77 136.035 35.75 136.415 35.75C136.795 35.73 137.085 35.72 137.285 35.72V38H129.425V36.05ZM139.251 36.05C139.811 36.05 140.211 35.94 140.451 35.72C140.691 35.5 140.841 35.19 140.901 34.79C140.981 34.37 141.021 33.9 141.021 33.38V28.4C141.021 28.04 141.031 27.63 141.051 27.17C141.071 26.69 141.101 26.23 141.141 25.79C140.821 25.81 140.441 25.83 140.001 25.85C139.581 25.85 139.261 25.86 139.041 25.88V23.6C139.961 23.6 140.741 23.55 141.381 23.45C142.021 23.35 142.521 23.23 142.881 23.09C143.261 22.95 143.521 22.82 143.661 22.7H145.281V33.17C145.281 33.45 145.271 33.85 145.251 34.37C145.231 34.87 145.201 35.35 145.161 35.81C145.481 35.77 145.831 35.75 146.211 35.75C146.611 35.73 146.911 35.72 147.111 35.72V38H139.251V36.05ZM141.411 21.05L140.031 19.82L142.491 15.62C142.711 15.28 142.971 15.02 143.271 14.84C143.591 14.64 143.931 14.54 144.291 14.54C144.651 14.52 144.991 14.64 145.311 14.9C145.631 15.18 145.811 15.51 145.851 15.89C145.891 16.25 145.831 16.61 145.671 16.97C145.531 17.31 145.321 17.61 145.041 17.87L141.411 21.05ZM149.065 38V36.05C149.625 36.05 150.025 35.94 150.265 35.72C150.505 35.5 150.655 35.19 150.715 34.79C150.795 34.37 150.835 33.9 150.835 33.38V28.34C150.835 27.98 150.845 27.58 150.865 27.14C150.885 26.68 150.915 26.23 150.955 25.79C150.635 25.81 150.255 25.83 149.815 25.85C149.395 25.85 149.075 25.86 148.855 25.88V23.6C149.775 23.6 150.555 23.55 151.195 23.45C151.835 23.35 152.335 23.23 152.695 23.09C153.075 22.95 153.335 22.82 153.475 22.7H154.945C154.985 22.96 155.005 23.15 155.005 23.27C155.005 23.39 155.005 23.51 155.005 23.63C155.025 23.73 155.065 23.92 155.125 24.2C155.525 23.88 155.985 23.6 156.505 23.36C157.025 23.1 157.545 22.9 158.065 22.76C158.585 22.6 159.045 22.52 159.445 22.52C161.285 22.52 162.585 23.05 163.345 24.11C164.125 25.15 164.515 26.83 164.515 29.15V33.17C164.515 33.45 164.505 33.85 164.485 34.37C164.465 34.87 164.435 35.35 164.395 35.81C164.735 35.77 165.095 35.75 165.475 35.75C165.855 35.73 166.145 35.72 166.345 35.72V38H158.485V36.05C159.045 36.05 159.445 35.94 159.685 35.72C159.945 35.5 160.105 35.19 160.165 34.79C160.245 34.37 160.285 33.9 160.285 33.38L160.255 29.12C160.255 27.82 160.065 26.86 159.685 26.24C159.325 25.6 158.705 25.28 157.825 25.28C157.325 25.28 156.825 25.39 156.325 25.61C155.845 25.83 155.435 26.09 155.095 26.39C155.095 26.67 155.095 26.96 155.095 27.26C155.095 27.54 155.095 27.82 155.095 28.1V33.17C155.095 33.45 155.085 33.85 155.065 34.37C155.045 34.87 155.015 35.35 154.975 35.81C155.295 35.77 155.645 35.75 156.025 35.75C156.425 35.73 156.725 35.72 156.925 35.72V38H149.065ZM168.137 36.05C168.697 36.05 169.097 35.94 169.337 35.72C169.577 35.5 169.727 35.19 169.787 34.79C169.867 34.37 169.907 33.9 169.907 33.38V28.4C169.907 28.04 169.917 27.63 169.937 27.17C169.957 26.69 169.987 26.23 170.027 25.79C169.707 25.81 169.327 25.83 168.887 25.85C168.467 25.85 168.147 25.86 167.927 25.88V23.6C168.847 23.6 169.627 23.55 170.267 23.45C170.907 23.35 171.407 23.23 171.767 23.09C172.147 22.95 172.407 22.82 172.547 22.7H174.167V33.17C174.167 33.45 174.157 33.85 174.137 34.37C174.117 34.87 174.087 35.35 174.047 35.81C174.367 35.77 174.717 35.75 175.097 35.75C175.497 35.73 175.797 35.72 175.997 35.72V38H168.137V36.05ZM171.887 20.33C171.207 20.33 170.647 20.09 170.207 19.61C169.767 19.13 169.547 18.55 169.547 17.87C169.547 17.19 169.777 16.61 170.237 16.13C170.697 15.65 171.237 15.41 171.857 15.41C172.497 15.41 173.027 15.65 173.447 16.13C173.887 16.61 174.107 17.19 174.107 17.87C174.107 18.55 173.907 19.13 173.507 19.61C173.107 20.09 172.567 20.33 171.887 20.33ZM185.032 38.48C183.692 38.48 182.462 38.18 181.342 37.58C180.222 36.98 179.322 36.11 178.642 34.97C177.982 33.83 177.652 32.45 177.652 30.83C177.652 29.69 177.842 28.62 178.222 27.62C178.602 26.62 179.132 25.74 179.812 24.98C180.512 24.22 181.332 23.62 182.272 23.18C183.232 22.74 184.292 22.52 185.452 22.52C186.732 22.52 187.792 22.72 188.632 23.12C189.492 23.5 190.132 24.01 190.552 24.65C190.992 25.27 191.212 25.93 191.212 26.63C191.212 27.21 191.032 27.73 190.672 28.19C190.332 28.63 189.842 28.86 189.202 28.88C188.442 28.9 187.912 28.69 187.612 28.25C187.312 27.79 187.162 27.35 187.162 26.93C187.162 26.75 187.192 26.54 187.252 26.3C187.312 26.04 187.402 25.81 187.522 25.61C187.382 25.31 187.172 25.09 186.892 24.95C186.612 24.81 186.322 24.72 186.022 24.68C185.742 24.62 185.512 24.6 185.332 24.62C184.372 24.68 183.582 25.16 182.962 26.06C182.342 26.96 182.032 28.26 182.032 29.96C182.032 30.96 182.152 31.9 182.392 32.78C182.652 33.64 183.072 34.35 183.652 34.91C184.232 35.47 185.012 35.77 185.992 35.81C186.832 35.83 187.652 35.63 188.452 35.21C189.252 34.79 189.932 34.22 190.492 33.5L191.872 34.85C191.152 35.85 190.402 36.61 189.622 37.13C188.842 37.65 188.062 38 187.282 38.18C186.522 38.38 185.772 38.48 185.032 38.48ZM201.819 38C201.779 37.72 201.749 37.49 201.729 37.31C201.729 37.11 201.719 36.88 201.699 36.62C201.019 37.3 200.299 37.78 199.539 38.06C198.779 38.34 198.009 38.48 197.229 38.48C195.949 38.48 194.949 38.1 194.229 37.34C193.509 36.58 193.149 35.63 193.149 34.49C193.149 33.53 193.389 32.71 193.869 32.03C194.369 31.35 195.019 30.8 195.819 30.38C196.639 29.94 197.539 29.61 198.519 29.39C199.519 29.15 200.519 29.01 201.519 28.97V27.41C201.519 26.89 201.449 26.42 201.309 26C201.189 25.58 200.969 25.25 200.649 25.01C200.349 24.77 199.919 24.66 199.359 24.68C198.979 24.7 198.609 24.78 198.249 24.92C197.889 25.06 197.579 25.26 197.319 25.52C197.479 25.7 197.579 25.9 197.619 26.12C197.659 26.32 197.679 26.5 197.679 26.66C197.679 27.06 197.519 27.48 197.199 27.92C196.879 28.34 196.369 28.54 195.669 28.52C195.069 28.5 194.609 28.29 194.289 27.89C193.969 27.49 193.809 27.02 193.809 26.48C193.809 25.68 194.089 24.99 194.649 24.41C195.229 23.81 195.999 23.35 196.959 23.03C197.919 22.69 198.979 22.52 200.139 22.52C201.899 22.52 203.259 22.98 204.219 23.9C205.199 24.8 205.689 26.25 205.689 28.25C205.689 28.93 205.689 29.51 205.689 29.99C205.689 30.47 205.679 30.95 205.659 31.43C205.659 31.91 205.659 32.49 205.659 33.17C205.659 33.45 205.649 33.85 205.629 34.37C205.609 34.87 205.579 35.35 205.539 35.81C205.879 35.77 206.239 35.75 206.619 35.75C206.999 35.73 207.289 35.72 207.489 35.72V38H201.819ZM201.489 31.1C200.929 31.16 200.399 31.26 199.899 31.4C199.399 31.54 198.959 31.73 198.579 31.97C198.219 32.21 197.929 32.5 197.709 32.84C197.509 33.18 197.409 33.56 197.409 33.98C197.429 34.54 197.609 34.94 197.949 35.18C198.289 35.42 198.679 35.54 199.119 35.54C199.579 35.54 200.009 35.44 200.409 35.24C200.809 35.04 201.169 34.78 201.489 34.46C201.489 34.26 201.489 34.07 201.489 33.89C201.489 33.69 201.489 33.49 201.489 33.29C201.489 32.93 201.489 32.57 201.489 32.21C201.489 31.83 201.489 31.46 201.489 31.1ZM229.482 23.72C229.302 22.6 228.982 21.67 228.522 20.93C228.062 20.17 227.472 19.6 226.752 19.22C226.052 18.84 225.232 18.66 224.292 18.68C223.432 18.68 222.672 18.92 222.012 19.4C221.372 19.88 221.052 20.5 221.052 21.26C221.052 21.88 221.222 22.42 221.562 22.88C221.922 23.34 222.462 23.77 223.182 24.17C223.902 24.57 224.812 25 225.912 25.46C226.672 25.76 227.452 26.11 228.252 26.51C229.052 26.91 229.792 27.39 230.472 27.95C231.152 28.49 231.702 29.13 232.122 29.87C232.542 30.59 232.752 31.44 232.752 32.42C232.752 33.6 232.432 34.65 231.792 35.57C231.152 36.49 230.252 37.21 229.092 37.73C227.952 38.23 226.612 38.48 225.072 38.48C224.272 38.48 223.402 38.35 222.462 38.09C221.542 37.85 220.672 37.49 219.852 37.01L219.942 38.27H217.632V31.25H219.612C219.892 32.93 220.532 34.2 221.532 35.06C222.552 35.9 223.762 36.32 225.162 36.32C225.882 36.32 226.512 36.19 227.052 35.93C227.592 35.67 228.012 35.33 228.312 34.91C228.612 34.47 228.762 34 228.762 33.5C228.762 32.8 228.512 32.22 228.012 31.76C227.532 31.3 226.922 30.91 226.182 30.59C225.462 30.27 224.722 29.96 223.962 29.66C223.002 29.26 222.102 28.84 221.262 28.4C220.442 27.94 219.722 27.42 219.102 26.84C218.482 26.26 218.002 25.6 217.662 24.86C217.322 24.1 217.152 23.23 217.152 22.25C217.152 21.63 217.272 20.99 217.512 20.33C217.752 19.65 218.142 19.03 218.682 18.47C219.222 17.89 219.942 17.42 220.842 17.06C221.742 16.7 222.852 16.52 224.172 16.52C224.972 16.52 225.842 16.64 226.782 16.88C227.742 17.12 228.562 17.48 229.242 17.96L229.122 16.73H231.462V23.72H229.482ZM242.372 38.48C240.932 38.48 239.632 38.17 238.472 37.55C237.312 36.93 236.392 36.05 235.712 34.91C235.052 33.75 234.722 32.39 234.722 30.83C234.722 29.17 235.062 27.72 235.742 26.48C236.442 25.22 237.362 24.25 238.502 23.57C239.662 22.87 240.922 22.52 242.282 22.52C243.722 22.52 245.012 22.83 246.152 23.45C247.292 24.07 248.192 24.96 248.852 26.12C249.512 27.26 249.842 28.63 249.842 30.23C249.842 31.91 249.522 33.37 248.882 34.61C248.242 35.85 247.362 36.81 246.242 37.49C245.122 38.15 243.832 38.48 242.372 38.48ZM242.492 36.35C243.292 36.33 243.892 36.05 244.292 35.51C244.712 34.97 245.002 34.29 245.162 33.47C245.322 32.65 245.402 31.82 245.402 30.98C245.402 30.24 245.342 29.49 245.222 28.73C245.122 27.97 244.952 27.28 244.712 26.66C244.472 26.04 244.142 25.54 243.722 25.16C243.322 24.78 242.822 24.6 242.222 24.62C241.442 24.64 240.822 24.92 240.362 25.46C239.922 26 239.602 26.68 239.402 27.5C239.222 28.3 239.132 29.14 239.132 30.02C239.132 31.04 239.242 32.04 239.462 33.02C239.682 34 240.032 34.81 240.512 35.45C241.012 36.07 241.672 36.37 242.492 36.35ZM252.014 36.05C252.574 36.05 252.974 35.94 253.214 35.72C253.454 35.5 253.604 35.19 253.664 34.79C253.744 34.37 253.784 33.9 253.784 33.38V28.34C253.784 27.98 253.794 27.58 253.814 27.14C253.834 26.68 253.864 26.23 253.904 25.79C253.584 25.81 253.204 25.83 252.764 25.85C252.344 25.85 252.024 25.86 251.804 25.88V23.6H253.004C253.784 23.6 254.494 23.5 255.134 23.3C255.794 23.1 256.224 22.9 256.424 22.7H257.894C257.934 22.9 257.964 23.28 257.984 23.84C258.004 24.38 258.014 24.86 258.014 25.28C258.554 24.62 259.064 24.09 259.544 23.69C260.024 23.29 260.494 23 260.954 22.82C261.434 22.62 261.914 22.52 262.394 22.52C263.094 22.52 263.704 22.72 264.224 23.12C264.744 23.5 265.004 24.13 265.004 25.01C265.004 25.31 264.934 25.63 264.794 25.97C264.654 26.29 264.434 26.56 264.134 26.78C263.834 27 263.424 27.11 262.904 27.11C262.504 27.11 262.094 26.99 261.674 26.75C261.254 26.51 261.014 26.05 260.954 25.37C260.554 25.37 260.154 25.54 259.754 25.88C259.354 26.2 258.994 26.59 258.674 27.05C258.374 27.49 258.164 27.9 258.044 28.28V33.17C258.044 33.45 258.034 33.85 258.014 34.37C257.994 34.87 257.964 35.35 257.924 35.81C258.244 35.77 258.594 35.75 258.974 35.75C259.374 35.73 259.674 35.72 259.874 35.72V38H252.014V36.05ZM266.428 36.05C266.988 36.05 267.388 35.94 267.628 35.72C267.868 35.5 268.018 35.19 268.078 34.79C268.158 34.37 268.198 33.9 268.198 33.38V28.34C268.198 27.98 268.208 27.58 268.228 27.14C268.248 26.68 268.278 26.23 268.318 25.79C267.998 25.81 267.618 25.83 267.178 25.85C266.758 25.85 266.438 25.86 266.218 25.88V23.6H267.418C268.198 23.6 268.908 23.5 269.548 23.3C270.208 23.1 270.638 22.9 270.838 22.7H272.308C272.348 22.9 272.378 23.28 272.398 23.84C272.418 24.38 272.428 24.86 272.428 25.28C272.968 24.62 273.478 24.09 273.958 23.69C274.438 23.29 274.908 23 275.368 22.82C275.848 22.62 276.328 22.52 276.808 22.52C277.508 22.52 278.118 22.72 278.638 23.12C279.158 23.5 279.418 24.13 279.418 25.01C279.418 25.31 279.348 25.63 279.208 25.97C279.068 26.29 278.848 26.56 278.548 26.78C278.248 27 277.838 27.11 277.318 27.11C276.918 27.11 276.508 26.99 276.088 26.75C275.668 26.51 275.428 26.05 275.368 25.37C274.968 25.37 274.568 25.54 274.168 25.88C273.768 26.2 273.408 26.59 273.088 27.05C272.788 27.49 272.578 27.9 272.458 28.28V33.17C272.458 33.45 272.448 33.85 272.428 34.37C272.408 34.87 272.378 35.35 272.338 35.81C272.658 35.77 273.008 35.75 273.388 35.75C273.788 35.73 274.088 35.72 274.288 35.72V38H266.428V36.05ZM280.842 36.05C281.402 36.05 281.802 35.94 282.042 35.72C282.282 35.5 282.432 35.19 282.492 34.79C282.572 34.37 282.612 33.9 282.612 33.38V28.4C282.612 28.04 282.622 27.63 282.642 27.17C282.662 26.69 282.692 26.23 282.732 25.79C282.412 25.81 282.032 25.83 281.592 25.85C281.172 25.85 280.852 25.86 280.632 25.88V23.6C281.552 23.6 282.332 23.55 282.972 23.45C283.612 23.35 284.112 23.23 284.472 23.09C284.852 22.95 285.112 22.82 285.252 22.7H286.872V33.17C286.872 33.45 286.862 33.85 286.842 34.37C286.822 34.87 286.792 35.35 286.752 35.81C287.072 35.77 287.422 35.75 287.802 35.75C288.202 35.73 288.502 35.72 288.702 35.72V38H280.842V36.05ZM284.592 20.33C283.912 20.33 283.352 20.09 282.912 19.61C282.472 19.13 282.252 18.55 282.252 17.87C282.252 17.19 282.482 16.61 282.942 16.13C283.402 15.65 283.942 15.41 284.562 15.41C285.202 15.41 285.732 15.65 286.152 16.13C286.592 16.61 286.812 17.19 286.812 17.87C286.812 18.55 286.612 19.13 286.212 19.61C285.812 20.09 285.272 20.33 284.592 20.33ZM297.557 38.48C296.697 38.48 295.857 38.37 295.037 38.15C294.217 37.93 293.577 37.65 293.117 37.31L293.177 38.21H290.897L290.777 33.05H292.727C292.787 33.65 293.027 34.2 293.447 34.7C293.867 35.2 294.417 35.6 295.097 35.9C295.777 36.18 296.537 36.32 297.377 36.32C297.717 36.32 298.037 36.27 298.337 36.17C298.657 36.07 298.917 35.91 299.117 35.69C299.337 35.45 299.447 35.16 299.447 34.82C299.447 34.44 299.307 34.13 299.027 33.89C298.767 33.65 298.377 33.42 297.857 33.2C297.357 32.98 296.727 32.73 295.967 32.45C295.347 32.21 294.717 31.96 294.077 31.7C293.457 31.44 292.877 31.13 292.337 30.77C291.817 30.39 291.397 29.93 291.077 29.39C290.757 28.83 290.597 28.15 290.597 27.35C290.597 26.77 290.707 26.2 290.927 25.64C291.147 25.06 291.487 24.54 291.947 24.08C292.407 23.6 292.987 23.22 293.687 22.94C294.407 22.66 295.257 22.52 296.237 22.52C296.777 22.52 297.387 22.61 298.067 22.79C298.767 22.95 299.357 23.2 299.837 23.54V22.67H302.117V27.98H300.167C300.047 27.28 299.797 26.68 299.417 26.18C299.057 25.68 298.587 25.3 298.007 25.04C297.427 24.76 296.777 24.62 296.057 24.62C295.557 24.62 295.097 24.74 294.677 24.98C294.277 25.22 294.077 25.63 294.077 26.21C294.077 26.67 294.237 27.04 294.557 27.32C294.877 27.58 295.317 27.8 295.877 27.98C296.437 28.16 297.057 28.37 297.737 28.61C298.757 28.95 299.657 29.35 300.437 29.81C301.237 30.27 301.867 30.83 302.327 31.49C302.787 32.13 303.017 32.92 303.017 33.86C303.017 34.9 302.757 35.76 302.237 36.44C301.717 37.12 301.037 37.63 300.197 37.97C299.377 38.31 298.497 38.48 297.557 38.48ZM312.567 38.48C311.127 38.48 309.827 38.17 308.667 37.55C307.507 36.93 306.587 36.05 305.907 34.91C305.247 33.75 304.917 32.39 304.917 30.83C304.917 29.17 305.257 27.72 305.937 26.48C306.637 25.22 307.557 24.25 308.697 23.57C309.857 22.87 311.117 22.52 312.477 22.52C313.917 22.52 315.207 22.83 316.347 23.45C317.487 24.07 318.387 24.96 319.047 26.12C319.707 27.26 320.037 28.63 320.037 30.23C320.037 31.91 319.717 33.37 319.077 34.61C318.437 35.85 317.557 36.81 316.437 37.49C315.317 38.15 314.027 38.48 312.567 38.48ZM312.687 36.35C313.487 36.33 314.087 36.05 314.487 35.51C314.907 34.97 315.197 34.29 315.357 33.47C315.517 32.65 315.597 31.82 315.597 30.98C315.597 30.24 315.537 29.49 315.417 28.73C315.317 27.97 315.147 27.28 314.907 26.66C314.667 26.04 314.337 25.54 313.917 25.16C313.517 24.78 313.017 24.6 312.417 24.62C311.637 24.64 311.017 24.92 310.557 25.46C310.117 26 309.797 26.68 309.597 27.5C309.417 28.3 309.327 29.14 309.327 30.02C309.327 31.04 309.437 32.04 309.657 33.02C309.877 34 310.227 34.81 310.707 35.45C311.207 36.07 311.867 36.37 312.687 36.35Z" fill="#426D97"/>
</svg>
